<?xml version="1.0" encoding="UTF-8" standalone="no"?>
<!-- Created with Inkscape (http://www.inkscape.org/) -->

<svg
   width="26.458332mm"
   height="20.676128mm"
   viewBox="0 0 26.458332 20.676128"
   version="1.1"
   id="svg1"
   xmlns:inkscape="http://www.inkscape.org/namespaces/inkscape"
   xmlns:sodipodi="http://sodipodi.sourceforge.net/DTD/sodipodi-0.dtd"
   xmlns="http://www.w3.org/2000/svg"
   xmlns:svg="http://www.w3.org/2000/svg">
  <sodipodi:namedview
     id="namedview1"
     pagecolor="#ffffff"
     bordercolor="#000000"
     borderopacity="0.25"
     inkscape:showpageshadow="2"
     inkscape:pageopacity="0.0"
     inkscape:pagecheckerboard="0"
     inkscape:deskcolor="#d1d1d1"
     inkscape:document-units="mm" />
  <defs
     id="defs1">
    <clipPath
       clipPathUnits="userSpaceOnUse"
       id="clipPath10094-6">
      <path
         d="M 0,200 H 200 V 0 H 0 Z"
         transform="translate(-193.47848,-178.1045)"
         id="path10094-5" />
    </clipPath>
    <clipPath
       clipPathUnits="userSpaceOnUse"
       id="clipPath10096">
      <path
         d="M 0,200 H 200 V 0 H 0 Z"
         transform="translate(-141.81353,-117.77831)"
         id="path10096" />
    </clipPath>
    <clipPath
       clipPathUnits="userSpaceOnUse"
       id="clipPath10098">
      <path
         d="M 0,200 H 200 V 0 H 0 Z"
         transform="translate(-148.5732,-100.0811)"
         id="path10098" />
    </clipPath>
    <clipPath
       clipPathUnits="userSpaceOnUse"
       id="clipPath10100">
      <path
         d="M 0,200 H 200 V 0 H 0 Z"
         transform="translate(-133.69583,-126.4395)"
         id="path10100" />
    </clipPath>
  </defs>
  <g
     inkscape:label="Camada 1"
     inkscape:groupmode="layer"
     id="layer1"
     transform="translate(-93.13312,-139.43542)">
    <g
       id="g10227"
       transform="matrix(0.09921901,0,0,0.09921901,-760.15036,136.54432)"
       style="fill:#ffffff">
      <path
         id="path10093"
         d="M 0,0 H 6.25 C 6.431,-36.142 5.888,-73.008 6.521,-108.695 v -39.947 c -19.995,7.51 -50.377,6.178 -73.913,2.174 -3.372,-0.573 -7.952,-0.927 -9.782,-1.902 -1.784,-0.95 -2.82,-4.116 -5.163,-5.435 -3.144,-1.768 -6.091,-2.07 -10.055,-2.445 h -1.63 c -6.218,0.692 -12.45,2.224 -14.402,7.608 5.092,0.162 9.958,0.549 15.217,0.544 v 24.456 c 18.881,-1.605 32.091,3.356 41.848,12.229 7.658,6.964 15.164,15.533 15.531,28.591 0.047,1.683 -0.445,3.955 -0.042,5.92 0.437,2.13 2.707,1.919 2.989,4.347 0.194,2.387 -2.994,1.898 -4.348,2.99 -1.113,2.6 -2.018,5.409 -3.26,7.879 4.068,0.372 9.051,1.448 9.51,3.805 0.898,7.522 -10.664,4.491 -16.576,6.522 -2.549,0.876 -5.324,3.905 -7.608,5.435 -9.528,6.38 -21.409,9.698 -38.316,8.967 v 12.5 c -19.816,10.729 -53.467,11.985 -82.88,8.968 v -113.316 c 21.839,-0.988 39.171,-6.587 54.076,-14.945 1.951,-1.094 4.344,-2.213 5.706,-4.076 -12.594,1.53 -26.419,4.302 -40.76,4.347 -13.095,0.042 -25.521,-1.83 -36.142,-4.891 v 57.065 c 0.496,25.334 0.272,52.399 0.272,78.533 0,3.313 -0.641,10.38 0.272,11.141 0.46,0.384 4.794,0 7.065,0 37.226,0 69.809,-1.738 92.12,-15.489 C -70.223,-3.691 -37.473,0.516 0,0"
         style="fill:#ffffff;fill-opacity:1;fill-rule:evenodd;stroke:none"
         transform="matrix(1.3333333,0,0,-1.3333333,8857.9713,29.194)"
         clip-path="url(#clipPath10094-6)" />
      <path
         id="path10095"
         d="m 0,0 c 1.288,-2.88 3.558,-6.224 4.348,-8.696 -39.852,3.229 -75.815,-2.48 -100.271,-17.663 -1.476,-0.916 -2.85,-2.334 -4.62,-2.717 2.545,7.328 10.486,9.26 16.033,13.587 0.917,2.706 1.288,5.957 2.717,8.152 C -61.201,1.397 -27.178,4.638 0,0"
         style="fill:#ffffff;fill-opacity:1;fill-rule:evenodd;stroke:none"
         transform="matrix(1.3333333,0,0,-1.3333333,8789.0847,109.62893)"
         clip-path="url(#clipPath10096)" />
      <path
         id="path10097"
         d="m 0,0 c 0.585,-18.133 -8.196,-30.617 -20.38,-38.044 -13.828,-8.428 -36.659,-7.542 -49.898,0.028 -1.788,1.024 -3.488,2.498 -4.722,4.321 5.108,2.312 11.093,3.908 18.207,4.891 7.212,0.995 14.925,-0.08 21.739,0.543 3.016,0.277 5.63,1.959 5.435,4.076 -0.337,3.656 -10.724,2.559 -15.218,2.174 -16.115,-1.38 -29.969,-6.82 -40.761,-12.228 0.369,2.892 2.552,3.97 4.077,5.707 -1.005,1.516 -3.918,4.489 -3.502,5.619 1.044,2.835 10.871,5.112 14.099,6.065 13.161,3.886 30.474,5.276 46.467,3.533 6.806,-0.742 13.987,-1.932 16.305,3.804 -1.723,3.389 -6.213,2.727 -9.511,2.99 -11.556,0.921 -24.101,0.337 -34.783,-1.359 -17.392,-2.763 -33.507,-8.136 -44.021,-15.489 0.417,4.836 4.147,6.359 6.793,8.967 -0.235,2.083 -1.25,5.186 0,7.065 1.492,2.241 8.833,3.38 11.957,4.348 C -56.991,3.436 -22.95,7.312 0,0"
         style="fill:#ffffff;fill-opacity:1;fill-rule:evenodd;stroke:none"
         transform="matrix(1.3333333,0,0,-1.3333333,8798.0976,133.2252)"
         clip-path="url(#clipPath10098)" />
      <path
         id="path10099"
         d="m 0,0 c -41.067,-0.056 -76.695,-5.552 -98.913,-24.456 4.878,8.475 13.895,15.235 24.456,19.565 3.063,1.256 6.377,1.469 9.239,2.99 3.898,2.07 6.897,5.968 11.142,8.151 7.791,4.007 20.51,7.054 32.609,4.62 C -13.062,9.18 -5.033,5.198 0,0"
         style="fill:#ffffff;fill-opacity:1;fill-rule:evenodd;stroke:none"
         transform="matrix(1.3333333,0,0,-1.3333333,8778.2611,98.080667)"
         clip-path="url(#clipPath10100)" />
    </g>
  </g>
</svg>
